<svg xmlns="http://www.w3.org/2000/svg" viewBox="0 0 2154.33 3442.49">
  <defs>
    <style>
      .cls-1 {
        fill: #b72025;
      }

      .cls-2 {
        fill: #82782f;
      }

      .cls-3 {
        fill: #ef4438;
      }

      .cls-4, .cls-5 {
        fill: none;
        stroke: #231f20;
        stroke-miterlimit: 10;
        stroke-width: 2px;
      }

      .cls-5 {
        stroke-linecap: round;
      }

      .cls-6 {
        fill: #434343;
      }

      .cls-7 {
        fill: #212121;
      }

      .cls-8 {
        fill: #ffc50d;
      }

      .cls-9 {
        fill: #d42026;
      }

      .cls-10 {
        fill: #ef9a9b;
      }
    </style>
  </defs>
  <title>Fichier 4</title>
  <g id="Calque_2" data-name="Calque 2">
    <g id="Calque_1-2" data-name="Calque 1">
      <g>
        <path class="cls-1" d="M626.09,1050.9H536.86l-1.15.1c-4.61.79-113.24,20.23-143.88,95.64-29.1,71.62-216.12,425.59-218,429.16l-.51,1-59.74,352.13c0,.1,0,.2,0,.3h0c-2.09,14.12,24.41,29.18,47,39.32l8.58,3.85,2.75-25.78a555.32,555.32,0,0,1,113.76,3c59.86,7.9,101.13,22.34,114.65,27.54L396,2005.38l9-1.2c21.73-2.91,44.91-13.61,55.09-24.16l3.22,2.55Z"/>
        <path class="cls-2" d="M388.28,2121l27.12-152-4.56-2.28c-1.72-.86-43.08-21.14-126.93-31.07s-118.36-2.26-119.8-1.93l-4.47,1L138.17,2068.3C57.08,2102.39,0,2182.62,0,2275.95a225,225,0,0,0,78.26,170.54,6.82,6.82,0,0,0,11.19-4.07l15.82-96.65a6.8,6.8,0,0,0-.74-4.36,137.37,137.37,0,0,1-16.6-65.47c0-75.65,61.55-137.2,137.2-137.2s137.2,61.55,137.2,137.2a135.77,135.77,0,0,1-43.72,100.22,6.82,6.82,0,0,0-2.08,3.89l-15.87,97a6.82,6.82,0,0,0,9.31,7.41A225,225,0,0,0,388.28,2121Z"/>
        <g>
          <path class="cls-3" d="M1076.55,1990.57"/>
          <path class="cls-4" d="M1076.55,1990.57"/>
        </g>
        <g>
          <path class="cls-3" d="M1076.55,1990.57"/>
          <path class="cls-5" d="M1076.55,1990.57"/>
        </g>
        <path class="cls-1" d="M2040.83,1929.19c0-.1,0-.2-.05-.3L1981,1576.76l-.51-1c-1.89-3.57-188.91-357.54-218-429.16-30.64-75.41-139.27-94.85-143.88-95.64l-90.39-.1L1691,1982.56l3.22-2.55c10.17,10.55,33.36,21.25,55.09,24.16l9,1.2-4.22-28.27c13.52-5.2,54.79-19.64,114.65-27.54a554.58,554.58,0,0,1,113.76-3l2.74,25.78,8.58-3.85C2016.42,1958.37,2042.92,1943.31,2040.83,1929.19Z"/>
        <path class="cls-2" d="M2016.17,2068.3l-21.47-133.58-4.47-1c-1.43-.33-35.94-8-119.8,1.93s-125.21,30.21-126.93,31.07l-4.56,2.28,27.11,152a225,225,0,0,0,78.31,363.48,6.82,6.82,0,0,0,9.31-7.41l-15.87-97a6.82,6.82,0,0,0-2.08-3.89A135.79,135.79,0,0,1,1792,2275.95c0-75.65,61.55-137.2,137.21-137.2s137.2,61.55,137.2,137.2a137.44,137.44,0,0,1-16.59,65.47,6.83,6.83,0,0,0-.75,4.36l15.82,96.65a6.83,6.83,0,0,0,11.19,4.07,225,225,0,0,0,78.24-170.54C2154.33,2182.62,2097.25,2102.39,2016.17,2068.3Z"/>
      </g>
      <g id="body">
        <path class="cls-6" d="M1706.48,3162.79l-37.1-907.21h.3l-8.37-204.76h-1168L447.56,3169.61v272.88h602.07v-279.7H1049V2791h56.28v651.49h602.07v-279.7Z"/>
        <path class="cls-6" d="M1705.06,1983.74l-171.94-984c-.33-1.3-8.42-31.85-33.9-31.85H653.88c-25.47,0-33.57,30.55-34,32.37L448,1983.74H427.62v80.73H1725.49v-80.73Z"/>
        <path class="cls-7" d="M1711.84,2050.83H441.27v-53.44h12.51a6.82,6.82,0,0,0,6.71-5.65h0l172.71-988.66c.06-.22,5.93-21.58,20.68-21.58h845.34c14.76,0,20.54,21.08,20.57,21.08h0l172.82,989.17h0a6.82,6.82,0,0,0,6.71,5.65h12.51Z"/>
        <polygon class="cls-7" points="1647.91 2064.47 1655.17 2241.94 1141.42 2241.94 1013.51 2241.94 499.46 2241.94 506.71 2064.47 1647.91 2064.47"/>
        <rect class="cls-7" x="1027.16" y="2255.58" width="100.62" height="518.36"/>
        <rect class="cls-7" x="461.82" y="3176.44" width="573.56" height="252.41"/>
        <polygon class="cls-7" points="461.49 3162.79 498.59 2255.58 1013.51 2255.58 1013.51 2787.59 1035.38 2787.59 1035.38 3162.79 461.49 3162.79"/>
        <polygon class="cls-7" points="1118.94 2787.59 1141.42 2787.59 1141.42 2255.58 1655.73 2255.58 1692.84 3162.79 1118.94 3162.79 1118.94 2787.59"/>
        <rect class="cls-7" x="1119.55" y="3176.44" width="573.56" height="252.41"/>
      </g>
      <g id="left_hand">
        <path class="cls-8" d="M1872,1949.16c64.59-7.65,99.18-4.53,110.69-2.92l18.72,116.47c-2.87-1-5.77-1.88-8.69-2.74l-.11,0q-2-.59-4-1.15l-.77-.21q-1.89-.51-3.79-1l-1-.24q-5.32-1.31-10.73-2.37l-2.48-.48-2.38-.42-2.85-.47-2.18-.34-3.29-.46-1.8-.24c-1.71-.21-3.42-.41-5.14-.59h-.15q-2.53-.26-5.08-.45l-1.6-.11q-1.86-.13-3.72-.24l-1.8-.09q-1.86-.09-3.73-.14l-1.63,0c-1.77,0-3.54-.07-5.31-.07s-3.74,0-5.6.07l-1.35,0c-1.44,0-2.88.09-4.31.16l-1.22.07q-2.28.12-4.54.29l-.77.06q-2.58.2-5.15.46h-.06a223,223,0,0,0-128.36,57.34l-23.63-132.5C1767,1971.49,1806.28,1956.95,1872,1949.16Z"/>
        <path class="cls-8" d="M2076.33,2427.79l-13.4-81.94a151.15,151.15,0,0,0,17.14-69.9c0-83.18-67.67-150.85-150.84-150.85s-150.85,67.67-150.85,150.85a149.22,149.22,0,0,0,46.35,108.58l13.47,82.32a210.64,210.64,0,0,1-120.44-190.89c0-114.61,91.64-208.21,205.49-211.39l.57,0q2.7-.07,5.42-.07t5.26.07l1.69.06c1.18,0,2.37.08,3.55.14l2,.12c1.06.06,2.13.12,3.19.2l2.18.18,3,.27,2.31.25,2.8.32,2.46.32,2.58.36,2.66.41,2.31.38,2.9.52,2,.38,3.2.65,1.58.34c1.19.26,2.37.53,3.56.82l1.11.27c1.33.33,2.65.66,4,1l.59.16q2.22.6,4.42,1.24h0q9.6,2.81,19,6.55l.29.12c77.8,31.26,132.88,107.47,132.88,196.33A211.29,211.29,0,0,1,2076.33,2427.79Z"/>
      </g>
      <g id="left_arm">
        <path class="cls-1" d="M1996.8,1952l-1.9-17.85-5.41-.64c-2.25-.27-55.62-6.37-122.53,2.48-75.6,10-121.23,29.66-123.14,30.5l-4.78,2.09,3,20.38c-17.84-4.09-31.42-12.27-37-17.05,24.42-14.95,90.22-36.25,156.69-46.1l4.19-.61,1.33-.18,2.84-.39,1.51-.2,2.62-.34,1.57-.19,2.53-.31,1.59-.19,2.48-.29,1.64-.18,2.38-.26,1.7-.17,2.29-.23,1.68-.16,2.27-.22,1.65-.15,2.27-.2,1.64-.14,2.23-.18,1.63-.12,2.21-.16,1.6-.11,2.19-.15,1.58-.1,2.18-.13,1.55-.09,2.16-.12,1.53-.08,2.14-.1,1.5-.07,2.12-.09,1.47-.05,2.1-.07,1.45,0,2.08-.06,1.42,0,2.08,0,1.35,0,2.08,0h11.21l2.09,0,1.11,0,2.08,0,1.06,0,2.1.06,1,0,2.12.07.91,0,2.16.09.82,0,2.21.11.71,0,2.27.13.59,0,2.37.15.43,0,2.45.17.3,0,2.66.21h0c9.85.8,18.42,1.91,25.51,3.19h.06l1.82.34.14,0,1.67.33.2,0,1.53.32.25.06,1.41.32.28.07,1.3.31.31.08,1.19.31.32.09,1.1.3.33.09,1,.3.34.1.93.29.34.11.85.29.33.12.77.28.33.13.7.28.32.13.63.27.3.14.55.26.29.14.48.26.27.15.42.25.25.16.35.24.23.17.29.23.2.17.09.08C2025.36,1934.21,2017.75,1941.74,1996.8,1952Z"/>
        <path class="cls-9" d="M1616.86,1064.54c8.18,1.54,106.23,21.31,133,87.23,28.88,71.08,205,404.73,218.08,429.43l56.72,334.33-.06,0-.93-.33-.8-.28-1-.34-.76-.25-1.1-.35-.2-.06c-.91-.27-1.84-.54-2.8-.8l-.55-.15-1.39-.36-.56-.14-1.51-.37h0q-2.7-.63-5.61-1.2l-.29-.06c-31.28-6-79.79-6.28-126.25-1.17l-.61.07-2.44.28-.93.11-2.35.28-.18,0-4.53.57-1.64.21-1.65.22-2,.27-1.37.19-3.35.48c-14.8,2.19-124.18,19-159.74,42.67l-155.58-890.48Z"/>
      </g>
      <g id="right_hand">
        <path class="cls-8" d="M171.61,1946.24c11.53-1.61,46.12-4.72,110.69,2.92,65.76,7.78,105.06,22.33,117.83,27.68l-23.63,132.5A223,223,0,0,0,248.15,2052h-.07q-2.57-.26-5.15-.46l-.77-.06q-2.27-.17-4.54-.29l-1.22-.07c-1.43-.07-2.87-.12-4.31-.16l-1.35,0q-2.8-.07-5.6-.07c-1.77,0-3.54,0-5.3.07l-1.65.05q-1.84.06-3.68.14l-1.86.09q-1.8.1-3.6.23l-1.72.12q-2.32.18-4.63.41l-.85.08q-2.39.25-4.76.55l-2.11.28-2.93.41-2.48.38-2.46.41-2.73.48-1.86.36q-5.89,1.13-11.67,2.57l-.39.1q-2.06.52-4.1,1.07l-.44.12q-6.57,1.79-13,4Z"/>
        <path class="cls-8" d="M316.15,2466.84l13.47-82.32A149.2,149.2,0,0,0,376,2275.95c0-83.18-67.67-150.85-150.85-150.85S74.27,2192.77,74.27,2275.95a151.11,151.11,0,0,0,17.14,69.9L78,2427.79a211.3,211.3,0,0,1-64.36-151.84c0-88.84,55.07-165,132.86-196.31l.32-.13q9.33-3.72,18.89-6.53l.14,0q2.15-.63,4.32-1.21l.7-.19c1.28-.34,2.57-.67,3.86-1l1.22-.3c1.15-.28,2.3-.54,3.45-.79l1.68-.37,3.1-.63,2.07-.4,2.81-.51,2.4-.4,2.58-.4,2.66-.37,2.4-.31,2.87-.33,2.25-.24,3-.27,2.14-.18c1.07-.08,2.15-.14,3.22-.2l2-.12c1.19-.06,2.38-.1,3.57-.14l1.68-.06q2.62-.06,5.26-.07t5.42.07l.57,0c113.85,3.18,205.49,96.78,205.49,211.39A210.65,210.65,0,0,1,316.15,2466.84Z"/>
      </g>
      <g id="right_arm">
        <path class="cls-9" d="M186.38,1581.2c13.06-24.7,189.2-358.35,218.08-429.43,26.74-65.81,124.83-85.69,133-87.23h72.38L454.27,1955c-35.57-23.64-144.94-40.47-159.74-42.66l-4.71-.67-1.41-.19-3.65-.49-1.24-.16-4.67-.58-1.23-.14-3.66-.42-1.53-.17-4.27-.45-.55-.06-4.74-.45-1.47-.13-3.67-.32-1.28-.11-4.77-.37-1-.07-3.9-.27-1.38-.09-4.44-.27-.39,0-4.87-.25-1.14-.05-4-.17-1,0-4.87-.16h-.48l-4.37-.1-1,0-4.6-.07H214l-4.83,0h-4.77l-3.37,0-1.5,0-1.79,0-1.49,0-1.78,0-1.46,0-1.78.06-1.43.06-1.76.07-1.38.06-3.33.17-1.27.07-1.7.1L179,1907l-1.65.11-1.38.1-1.62.13-1.38.11-1.58.13-1.37.13-2.64.26-1.51.16-1.44.16-1.38.16-1.41.17-1.35.17-1.38.18-1.34.18-1.32.19-1.43.21-1.17.18-2.41.39-1,.18-1.47.26-1.1.21-1.33.26-1.08.22-1.32.28-1,.22-1.4.32-.85.2-2.11.53-.58.16-1.52.41-.79.23-1.25.37-.81.25-1.17.38-.76.25-1.21.42-.63.22-.15.05Z"/>
        <path class="cls-1" d="M410.52,1966.53c-1.91-.84-47.54-20.52-123.14-30.5a568.72,568.72,0,0,0-73.86-4.77c-28.65,0-47.37,2.14-48.68,2.29l-5.41.64L157.54,1952c-21.87-10.75-29.2-18.44-30.38-20.55l.23-.22.13-.12.35-.28.16-.12.41-.28.19-.12.47-.28.22-.13.52-.28.25-.13.56-.27.3-.14.58-.25.36-.16.59-.23.43-.17.59-.22.52-.19.53-.18.66-.22.28-.09q2.87-.92,6.57-1.79l.22-.05,1.31-.3.33-.08,1.32-.28.41-.09,1.26-.25.56-.11,1.23-.23.64-.12,1.22-.22.73-.13,1.23-.2.79-.13,1.21-.19.89-.14,1.17-.17,1-.14,1.15-.16,1.08-.15,1.15-.15,1.15-.15,1.14-.14,1.25-.15,1.09-.12,1.36-.15,1-.11,1.47-.15,1-.1,1.56-.15,1-.09,1.67-.14.93-.07,1.79-.14.89-.06,1.88-.13.86-.06,2-.12.81,0,2.09-.11.78,0,2.19-.1.73,0,2.32-.09.66,0,2.43-.08.6,0,2.54-.07h.55l2.65-.05h.51l2.75,0h.46l2.86,0h3.74l3.05,0h.33l3.14,0h.3l3.24.07H222l3.36.09h.17l3.44.12h.15l3.53.14h.1l3.63.17h.05c17.35.88,36.18,2.65,56.08,5.59,66.32,9.82,132,31.05,156.53,46-5.75,5.07-19.22,13.12-36.8,17.15l3-20.38Z"/>
      </g>
      <g id="head">
        <path class="cls-10" d="M895.35,142.41h362.41v-103A39.5,39.5,0,0,0,1218.31,0H934.81a39.5,39.5,0,0,0-39.46,39.45Z"/>
        <rect class="cls-10" x="670.65" y="156.05" width="811.8" height="706.06" rx="128.54" ry="128.54"/>
        <rect class="cls-10" x="820.73" y="875.76" width="511.64" height="92.1"/>
      </g>
      <path d="M939.74,507.26a42.52,42.52,0,1,1,42.52-42.52A42.57,42.57,0,0,1,939.74,507.26Z"/>
      <path d="M1213.37,507.26a42.52,42.52,0,1,1,42.52-42.52A42.57,42.57,0,0,1,1213.37,507.26Z"/>
      <path d="M1075.89,705.78c-100,0-140.13-57.39-141.79-59.83a6.82,6.82,0,1,1,11.29-7.67c.36.52,38.16,53.87,130.51,53.87,92.87,0,131.52-53.41,131.9-54a6.82,6.82,0,1,1,11.16,7.85C1217.23,648.47,1175.78,705.78,1075.89,705.78Z"/>
    </g>
  </g>
</svg>
